<?xml version="1.0" ?><!DOCTYPE svg  PUBLIC '-//W3C//DTD SVG 1.1//EN'  'http://www.w3.org/Graphics/SVG/1.1/DTD/svg11.dtd'><svg enable-background="new 0 0 50 50" id="Layer_1" version="1.1" viewBox="0 0 50 50" xml:space="preserve" xmlns="http://www.w3.org/2000/svg" xmlns:xlink="http://www.w3.org/1999/xlink"><g id="Chrome"><circle cx="25" cy="25" fill="#C0C6CC" r="5"/><path d="M39.1,20H28.3c1.6,1.1,2.7,2.9,2.7,5c0,1.7-0.9,3.9-2,5c-2.2,2.3-8.4,9.3-8.4,9.3C22,39.8,23.5,40,25,40   c8.3,0,15-6.7,15-15C40,23.2,39.7,21.6,39.1,20z" fill="#C0C6CC"/><path d="M19,26c-1-2.9-5.4-10.8-5.4-10.8c-2.3,2.6-3.6,6-3.6,9.8c0,6.5,3.6,11.9,9.3,14.1l7.7-8.4   c-0.6,0.2-1.3,0.4-2,0.4C22,31,20,29,19,26z" fill="#C0C6CC"/><path d="M19.2,23.4c0.7-2.6,3-4.4,5.8-4.4h13.7c-2.3-5.3-7.6-9-13.7-9c-4,0-7.7,1.6-10.4,4.2L19.2,23.4z" fill="#C0C6CC"/></g><path d="M25,1C11.7,1,1,11.7,1,25s10.7,24,24,24s24-10.7,24-24S38.3,1,25,1z M25,44C14.5,44,6,35.5,6,25S14.5,6,25,6  s19,8.5,19,19S35.5,44,25,44z" fill="#C0C6CC"/></svg>